<svg xmlns="http://www.w3.org/2000/svg" xmlns:xlink="http://www.w3.org/1999/xlink" version="1.1" width="459pt" height="259pt" viewBox="0 0 459 259" fill="#ffffff">
<defs>
<clipPath id="clip_0">
<path transform="matrix(1,0,0,-1,30,239)" d="M0 0H399V219H0Z"/>
</clipPath>
<clipPath id="clip_1">
<path transform="matrix(1,0,0,-1,-42,601)" d="M0 0H595.2756V841.8898H0Z"/>
</clipPath>
<clipPath id="clip_2">
<path transform="matrix(1,0,0,-1,-42,601)" d="M0 .028H595.247V841.88906H0Z" fill-rule="evenodd"/>
</clipPath>
</defs>
<g clip-path="url(#clip_0)">
<g clip-path="url(#clip_1)">
<g clip-path="url(#clip_2)">
<path transform="matrix(1,0,0,-1,-42,601)" d="M244.346 539.064C244.346 531.949 240.406 524.976 232.894 518.796 225.383 512.645 214.583 507.543 201.6 503.971 188.589 500.428 173.849 498.557 158.825 498.557 143.802 498.557 129.061 500.428 116.079 503.971 103.068 507.543 92.268 512.645 84.756 518.796 77.244 524.976 73.304 531.949 73.304 539.064 73.304 546.179 77.244 553.152 84.756 559.303 92.268 565.483 103.068 570.585 116.05 574.157 129.061 577.7 143.802 579.571 158.825 579.571 173.849 579.571 188.589 577.7 201.572 574.157 214.583 570.585 225.383 565.483 232.894 559.332 240.406 553.152 244.346 546.179 244.346 539.064Z" fill="#afd095" fill-rule="evenodd"/>
<path transform="matrix(1,0,0,-1,-42,601)" stroke-width="1.50233" stroke-linecap="butt" stroke-linejoin="round" fill="none" stroke="#3faf46" d="M244.346 539.064C244.346 531.949 240.406 524.976 232.894 518.796 225.383 512.645 214.583 507.543 201.6 503.971 188.589 500.428 173.849 498.557 158.825 498.557 143.802 498.557 129.061 500.428 116.079 503.971 103.068 507.543 92.268 512.645 84.756 518.796 77.244 524.976 73.304 531.949 73.304 539.064 73.304 546.179 77.244 553.152 84.756 559.303 92.268 565.483 103.068 570.585 116.05 574.157 129.061 577.7 143.802 579.571 158.825 579.571 173.849 579.571 188.589 577.7 201.572 574.157 214.583 570.585 225.383 565.483 232.894 559.332 240.406 553.152 244.346 546.179 244.346 539.064Z"/>
<text xml:space="preserve" transform="matrix(1 0 -0 1 -42 601)" font-size="18" font-family="LiberationSans"><tspan y="-542.919" x="126.737 137.051 143.045 152.999 156.959 166.913 170.873 180.827">Training</tspan></text>
<text xml:space="preserve" transform="matrix(1 0 -0 1 -42 601)" font-size="18" font-family="LiberationSans"><tspan y="-522.765" x="128.863 145.873 155.845 165.799 175.75299 179.713">Wheels</tspan></text>
<path transform="matrix(1,0,0,-1,-42,601)" d="M244.346 404.021C244.346 396.935 240.406 389.933 232.894 383.782 225.383 377.602 214.583 372.5 201.6 368.957 188.589 365.385 173.849 363.514 158.825 363.514 143.802 363.514 129.061 365.385 116.079 368.957 103.068 372.5 92.268 377.602 84.756 383.782 77.244 389.933 73.304 396.935 73.304 404.021 73.304 411.136 77.244 418.138 84.756 424.289 92.268 430.469 103.068 435.571 116.05 439.114 129.061 442.686 143.802 444.557 158.825 444.557 173.849 444.557 188.589 442.686 201.572 439.114 214.583 435.571 225.383 430.469 232.894 424.289 240.406 418.138 244.346 411.136 244.346 404.05V404.021Z" fill="#77bc65" fill-rule="evenodd"/>
<path transform="matrix(1,0,0,-1,-42,601)" stroke-width="1.50233" stroke-linecap="butt" stroke-linejoin="round" fill="none" stroke="#069a2e" d="M244.346 404.021C244.346 396.935 240.406 389.933 232.894 383.782 225.383 377.602 214.583 372.5 201.6 368.957 188.589 365.385 173.849 363.514 158.825 363.514 143.802 363.514 129.061 365.385 116.079 368.957 103.068 372.5 92.268 377.602 84.756 383.782 77.244 389.933 73.304 396.935 73.304 404.021 73.304 411.136 77.244 418.138 84.756 424.289 92.268 430.469 103.068 435.571 116.05 439.114 129.061 442.686 143.802 444.557 158.825 444.557 173.849 444.557 188.589 442.686 201.572 439.114 214.583 435.571 225.383 430.469 232.894 424.289 240.406 418.138 244.346 411.136 244.346 404.05V404.021Z"/>
<text xml:space="preserve" transform="matrix(1 0 -0 1 -42 601)" font-size="18" font-family="LiberationSans"><tspan y="-397.813" x="108.454 121.414 131.386 140.368 145.39 155.344 165.316 175.26999 185.22399 195.19599 199.13799">Unstoppable</tspan></text>
<path transform="matrix(1,0,0,-1,-42,601)" d="M469.361 539.064C469.361 531.949 465.42 524.976 457.909 518.796 450.397 512.645 439.597 507.543 426.614 503.971 413.603 500.428 398.863 498.557 383.839 498.557 368.816 498.557 354.076 500.428 341.093 503.971 328.082 507.543 317.282 512.645 309.77 518.796 302.258 524.976 298.318 531.949 298.318 539.064 298.318 546.179 302.258 553.152 309.77 559.303 317.282 565.483 328.082 570.585 341.065 574.157 354.076 577.7 368.816 579.571 383.839 579.571 398.863 579.571 413.603 577.7 426.586 574.157 439.597 570.585 450.397 565.483 457.909 559.332 465.42 553.152 469.361 546.179 469.361 539.064Z" fill="#ffd8ce" fill-rule="evenodd"/>
<path transform="matrix(1,0,0,-1,-42,601)" stroke-width="1.50233" stroke-linecap="butt" stroke-linejoin="round" fill="none" stroke="#ff7b59" d="M469.361 539.064C469.361 531.949 465.42 524.976 457.909 518.796 450.397 512.645 439.597 507.543 426.614 503.971 413.603 500.428 398.863 498.557 383.839 498.557 368.816 498.557 354.076 500.428 341.093 503.971 328.082 507.543 317.282 512.645 309.77 518.796 302.258 524.976 298.318 531.949 298.318 539.064 298.318 546.179 302.258 553.152 309.77 559.303 317.282 565.483 328.082 570.585 341.065 574.157 354.076 577.7 368.816 579.571 383.839 579.571 398.863 579.571 413.603 577.7 426.586 574.157 439.597 570.585 450.397 565.483 457.909 559.332 465.42 553.152 469.361 546.179 469.361 539.064Z"/>
<text xml:space="preserve" transform="matrix(1 0 -0 1 -42 601)" font-size="18" font-family="LiberationSans"><tspan y="-532.828" x="338.372 350.36003 365.372 375.32603 381.32 391.27403 401.22804 411.2 420.182">Emergency</tspan></text>
<path transform="matrix(1,0,0,-1,-42,601)" d="M469.332 404.021C469.332 396.935 465.392 389.933 457.88 383.782 450.369 377.602 439.569 372.5 426.586 368.957 413.575 365.385 398.835 363.514 383.811 363.514 368.787 363.514 354.047 365.385 341.065 368.957 328.054 372.5 317.254 377.602 309.742 383.782 302.23 389.933 298.29 396.935 298.29 404.021 298.29 411.136 302.23 418.138 309.742 424.289 317.254 430.469 328.054 435.571 341.036 439.114 354.047 442.686 368.787 444.557 383.811 444.557 398.835 444.557 413.575 442.686 426.586 439.114 439.569 435.571 450.369 430.469 457.88 424.289 465.392 418.138 469.332 411.136 469.332 404.05V404.021Z" fill="#ffa6a6" fill-rule="evenodd"/>
<path transform="matrix(1,0,0,-1,-42,601)" stroke-width="1.50233" stroke-linecap="butt" stroke-linejoin="round" fill="none" stroke="#f10d0c" d="M469.332 404.021C469.332 396.935 465.392 389.933 457.88 383.782 450.369 377.602 439.569 372.5 426.586 368.957 413.575 365.385 398.835 363.514 383.811 363.514 368.787 363.514 354.047 365.385 341.065 368.957 328.054 372.5 317.254 377.602 309.742 383.782 302.23 389.933 298.29 396.935 298.29 404.021 298.29 411.136 302.23 418.138 309.742 424.289 317.254 430.469 328.054 435.571 341.036 439.114 354.047 442.686 368.787 444.557 383.811 444.557 398.835 444.557 413.575 442.686 426.586 439.114 439.569 435.571 450.369 430.469 457.88 424.289 465.392 418.138 469.332 411.136 469.332 404.05V404.021Z"/>
<text xml:space="preserve" transform="matrix(1 0 -0 1 -42 601)" font-size="18" font-family="LiberationSans"><tspan y="-397.813" x="343.871 355.859 365.831 375.785 380.807 390.76103 400.733 413.693">Shutdown</tspan></text>
<path transform="matrix(1,0,0,-1,-42,601)" stroke-width=".99211" stroke-linecap="butt" stroke-linejoin="round" fill="none" stroke="#1c1c1c" d="M158.854 498.557V453.883"/>
<path transform="matrix(1,0,0,-1,-42,601)" d="M163.871 454.563 158.854 444.557 153.865 454.563H163.871Z" fill="#1c1c1c" fill-rule="evenodd"/>
<path transform="matrix(1,0,0,-1,-42,601)" stroke-width=".99211" stroke-linecap="butt" stroke-linejoin="round" fill="none" stroke="#1c1c1c" d="M289.02 539.064H253.672"/>
<path transform="matrix(1,0,0,-1,-42,601)" d="M288.34 544.053 298.346 539.064 288.34 534.046V544.053Z" fill="#1c1c1c" fill-rule="evenodd"/>
<path transform="matrix(1,0,0,-1,-42,601)" d="M254.353 534.046 244.346 539.064 254.353 544.053V534.046Z" fill="#1c1c1c" fill-rule="evenodd"/>
<path transform="matrix(1,0,0,-1,-42,601)" stroke-width=".99211" stroke-linecap="butt" stroke-linejoin="round" fill="none" stroke="#1c1c1c" d="M383.868 498.557C383.868 458.05 383.839 480.698 383.839 454.024"/>
<path transform="matrix(1,0,0,-1,-42,601)" d="M388.828 454.535 383.839 444.557 378.85 454.535H388.828Z" fill="#1c1c1c" fill-rule="evenodd"/>
</g>
</g>
</g>
</svg>
